<?xml version="1.0" encoding="utf-8"?>
<!-- Generator: Adobe Illustrator 26.1.0, SVG Export Plug-In . SVG Version: 6.00 Build 0)  -->
<svg version="1.1" id="Camada_1" xmlns="http://www.w3.org/2000/svg" xmlns:xlink="http://www.w3.org/1999/xlink" x="0px" y="0px"
	 viewBox="0 0 552 383" style="enable-background:new 0 0 552 383;" xml:space="preserve">
<style type="text/css">
	.st0{fill:#FFFFFF;stroke:#00E934;stroke-width:4;stroke-miterlimit:10;}
	.st1{fill:#1C1C1C;}
	.st2{fill:#3CC65D;}
	.st3{fill:#00932D;}
	.st4{clip-path:url(#SVGID_00000070098138778912671870000009907983990723492758_);}
	.st5{fill:url(#SVGID_00000080203036706021987180000001119271810705135541_);}
	.st6{clip-path:url(#SVGID_00000075160289144435320140000004386277913563718809_);}
	.st7{fill:#FAFAFA;}
	.st8{fill:#E0E0E0;}
	.st9{fill:#FFFFFF;}
	.st10{enable-background:new    ;}
	.st11{fill:#969696;}
	.st12{fill:#00D200;}
</style>
<g id="Camada_2_00000000196700351800676980000018327477753581004934_">
	<g id="Camada_1-2">
		<rect x="2" y="2" class="st0" width="548" height="379"/>
		<path class="st1" d="M34.6,245h483.2c8.2,0,14.9,6.7,14.9,14.9v52.2c0,8.2-6.7,14.9-14.9,14.9H34.6c-8.2,0-14.9-6.7-14.9-14.9
			v-52.2C19.8,251.7,26.4,245,34.6,245z"/>
		<path class="st2" d="M37.8,232.7v14c0,38.9,0.1,65.7,24.5,88.3c9.4,8.7,32.4,23,32.4,23V219.7C70.8,219.7,46.9,229.6,37.8,232.7z"
			/>
		<path class="st3" d="M151.7,232.5c-11.4-3.3-33.1-12.8-57-12.8V358c0,0,23.1-14.3,32.6-23c24.5-22.7,24.4-46.5,24.4-83.2V232.5z"
			/>
		<g>
			<defs>
				<path id="SVGID_1_" d="M95.4,219.7c-26,0-48.5,9.9-57.6,13v14c0,38.9,0.2,65.7,24.6,88.3c9.4,8.7,32.4,23,32.4,23
					s23.1-14.3,32.6-23c24.5-22.7,24.4-46.5,24.4-83.1v-19.4C140.3,229.2,119.9,219.7,95.4,219.7z"/>
			</defs>
			<clipPath id="SVGID_00000105392436868720390910000016929269439017065111_">
				<use xlink:href="#SVGID_1_"  style="overflow:visible;"/>
			</clipPath>
			<g style="clip-path:url(#SVGID_00000105392436868720390910000016929269439017065111_);">
				
					<linearGradient id="SVGID_00000133522129388809956900000010598557845355425165_" gradientUnits="userSpaceOnUse" x1="94.79" y1="845.78" x2="94.79" y2="853.54" gradientTransform="matrix(1 0 0 1 0.24 -615.04)">
					<stop  offset="0" style="stop-color:#263238;stop-opacity:0.35"/>
					<stop  offset="0.42" style="stop-color:#263238;stop-opacity:0.15"/>
					<stop  offset="0.89" style="stop-color:#263238;stop-opacity:2.000000e-02"/>
					<stop  offset="1" style="stop-color:#263238;stop-opacity:0"/>
				</linearGradient>
				
					<rect x="33.4" y="232.6" style="fill:url(#SVGID_00000133522129388809956900000010598557845355425165_);" width="123.3" height="9.4"/>
			</g>
		</g>
		<g>
			<defs>
				<path id="SVGID_00000152250688667151516590000005013249481432077740_" d="M94.8,234.5c-16,0-31,10.4-31,10.4s1,21.5,1,30.1
					c0,18.6,3.8,34,12.8,45.5c5.1,6.5,17.2,17.1,17.2,17.1s11.9-10.6,16.9-17.1c9-11.5,12.5-26.9,12.5-45.5c0-8.6,1.2-30.1,1.2-30.1
					S110.1,234.5,94.8,234.5z"/>
			</defs>
			<clipPath id="SVGID_00000005970712388764370670000009309859729454546588_">
				<use xlink:href="#SVGID_00000152250688667151516590000005013249481432077740_"  style="overflow:visible;"/>
			</clipPath>
			<g style="clip-path:url(#SVGID_00000005970712388764370670000009309859729454546588_);">
				<ellipse class="st7" cx="95.3" cy="339.9" rx="18.5" ry="17.1"/>
				<path class="st7" d="M95.3,369.5c-17.6,0-31.8-13.2-31.8-29.4s14.2-29.4,31.8-29.4s31.8,13.1,31.8,29.4S112.8,369.5,95.3,369.5z
					 M95.3,316.5c-14.1,0-25.6,10.6-25.6,23.6s11.4,23.6,25.6,23.6s25.6-10.6,25.6-23.6l0,0C120.8,327.1,109.4,316.5,95.3,316.5
					L95.3,316.5z"/>
				<path class="st7" d="M95.3,382.1c-25.1,0-45.4-18.8-45.4-42s20.3-42,45.4-42s45.4,18.8,45.4,42l0,0
					C140.6,363.3,120.3,382.1,95.3,382.1z M95.3,304.2c-21.5,0-38.9,16.1-38.9,35.9s17.4,35.9,38.9,35.9s38.9-16.1,38.9-35.9l0,0
					C134.1,320.3,116.7,304.2,95.3,304.2L95.3,304.2z"/>
				<ellipse class="st7" cx="94.4" cy="270.9" rx="18.8" ry="17.4"/>
			</g>
		</g>
		<path class="st8" d="M151.7,232v-10.7c0-3.9-5.8-9.3-10.9-9.3H47.8c-5.2,0-10,5.4-10,9.3V232H151.7L151.7,232z"/>
		<ellipse class="st9" cx="51.8" cy="223.3" rx="3.3" ry="3.1"/>
		<ellipse class="st9" cx="64.1" cy="223.3" rx="3.3" ry="3.1"/>
		<g class="st10">
			<path class="st9" d="M169.8,276.5c0-4.9,0.9-8.5,2.8-10.6c1.9-2.1,4.7-3.2,8.6-3.2c3.8,0,6.9,0.5,9.4,1.4v3.1h-7.7
				c-2.7,0-4.7,0.7-5.9,2.2c-1.2,1.5-1.8,3.8-1.8,7.2c0,3.5,2,6,5.9,7.5c1.2,0.5,2.4,1.1,3.7,1.7c1.3,0.6,2.4,1.4,3.5,2.5
				c1,1,1.9,2.3,2.6,3.9c0.7,1.6,1,3.5,1,5.9c0,5.2-1,8.9-2.9,11.1c-1.9,2.3-4.9,3.4-9,3.4c-3.9,0-7.1-0.5-9.6-1.4v-3.1h7.7
				c3,0,5.1-0.8,6.4-2.3c1.3-1.5,1.9-4.1,1.9-7.7c0-3-2-5.4-5.9-7c-1.3-0.5-2.5-1.1-3.8-1.7c-1.3-0.6-2.4-1.5-3.4-2.5
				c-1-1-1.9-2.4-2.5-4C170.2,281,169.8,279,169.8,276.5z"/>
			<path class="st9" d="M197.5,263.4h5.3v48.4h-5.3V263.4z"/>
			<path class="st9" d="M207,268.2v-4.8h24.4v4.8h-9.5v43.5h-5.3v-43.5H207z"/>
			<path class="st9" d="M240.8,288.9v18h14.9v4.8h-20.2v-48.4h20.2v4.8h-14.9v15.9h13.1v4.8H240.8z"/>
			<path class="st9" d="M284.2,296.2v15.5h-5.3v-47.7c2.7-0.9,5.9-1.4,9.5-1.4c2.4,0,4.4,0.3,6.1,0.9s3,1.5,4,2.9
				c1,1.3,1.8,3.1,2.3,5.3c0.5,2.2,0.7,4.9,0.7,8.1s-0.2,5.9-0.6,8.2c-0.4,2.2-1,4-1.9,5.4c-0.8,1.4-1.9,2.4-3.1,3s-2.6,0.9-4.2,0.9
				C288.5,297.2,286,296.9,284.2,296.2z M284.2,292.7h4.2c1.4,0,2.6-0.2,3.6-0.6c1-0.4,1.8-1.1,2.4-2.1c0.6-1,1.1-2.3,1.3-3.9
				c0.3-1.6,0.4-3.7,0.4-6.1c0-2.5-0.1-4.5-0.4-6.2c-0.3-1.6-0.8-2.9-1.4-3.9c-0.6-1-1.4-1.7-2.4-2.1c-1-0.4-2.2-0.6-3.5-0.6h-4.2
				V292.7z"/>
		</g>
		<g class="st10">
			<path class="st9" d="M330,279.3c0,8.7-2,13.8-5.9,15.5l7.1,16.9h-5.9l-6.5-16.2c-1,0-2-0.1-3-0.2c-1-0.1-2-0.3-3-0.5v16.9h-5.3
				v-47.7c2.7-0.9,5.9-1.4,9.5-1.4c2.4,0,4.5,0.3,6.1,0.9s3,1.5,4,2.8c1,1.3,1.8,3,2.2,5.1C329.8,273.6,330,276.2,330,279.3z
				 M312.8,291h4.2c1.3,0,2.5-0.2,3.5-0.6c1-0.4,1.8-1.1,2.4-2s1.1-2.2,1.4-3.7c0.3-1.5,0.4-3.4,0.4-5.6s-0.1-4.1-0.4-5.6
				c-0.3-1.5-0.7-2.8-1.4-3.7s-1.4-1.6-2.4-2c-1-0.4-2.1-0.6-3.5-0.6h-4.2V291z"/>
		</g>
		<g class="st10">
			<path class="st9" d="M343,263.9c1.5-0.8,3.3-1.2,5.4-1.2c1.9,0,3.7,0.4,5.3,1.1c1.6,0.7,2.9,2,4,3.9c1.1,1.9,2,4.4,2.6,7.6
				c0.6,3.2,0.9,7.3,0.9,12.2c0,4.9-0.3,9-0.9,12.2s-1.4,5.7-2.5,7.6s-2.4,3.2-4,3.9c-1.6,0.8-3.4,1.1-5.3,1.1s-3.8-0.4-5.3-1.1
				c-1.6-0.7-2.9-2-4-3.9c-1.1-1.9-2-4.4-2.6-7.6c-0.6-3.2-0.9-7.3-0.9-12.2c0-3.7,0.2-6.9,0.5-9.6c0.3-2.7,0.8-5,1.5-6.9
				c0.6-1.9,1.4-3.4,2.3-4.6C340.8,265.3,341.8,264.5,343,263.9z M341,287.6c0,13.8,2.5,20.7,7.4,20.7c5,0,7.4-6.9,7.4-20.7
				c0-13.8-2.5-20.7-7.4-20.7C343.4,266.8,341,273.7,341,287.6z"/>
		</g>
		<g class="st10">
			<path class="st9" d="M363,268.2v-4.8h24.4v4.8h-9.5v43.5h-5.3v-43.5H363z"/>
			<path class="st9" d="M396.8,288.9v18h14.9v4.8h-20.2v-48.4h20.2v4.8h-14.9v15.9h13.1v4.8H396.8z"/>
			<path class="st9" d="M439.6,285.5V311c-2.5,0.9-5.4,1.4-8.7,1.4c-2.6,0-4.8-0.4-6.6-1.3c-1.8-0.9-3.3-2.2-4.5-4.2
				c-1.2-1.9-2-4.5-2.6-7.7c-0.5-3.2-0.8-7.1-0.8-11.7c0-4.6,0.2-8.4,0.7-11.6c0.5-3.2,1.3-5.7,2.4-7.7s2.5-3.4,4.2-4.2
				s3.8-1.3,6.2-1.3c3.2,0,6,0.5,8.4,1.4v3.1h-7.7c-1.4,0-2.7,0.3-3.8,1c-1.1,0.7-2,1.8-2.8,3.4c-0.8,1.6-1.3,3.7-1.7,6.3
				c-0.4,2.6-0.6,5.9-0.6,9.7c0,3.9,0.2,7.1,0.6,9.7c0.4,2.6,1,4.7,1.8,6.3c0.8,1.6,1.9,2.7,3.1,3.4c1.3,0.7,2.8,1,4.6,1h2.4v-22.5
				H439.6z"/>
			<path class="st9" d="M446.5,263.4h5.3v48.4h-5.3V263.4z"/>
		</g>
		<g class="st10">
			<path class="st9" d="M458.9,311v-47c2.7-0.9,5.8-1.4,9.2-1.4c2.5,0,4.6,0.4,6.4,1.1c1.8,0.8,3.3,2.1,4.5,3.9
				c1.2,1.9,2.1,4.4,2.7,7.6c0.6,3.2,0.9,7.3,0.9,12.2c0,4.9-0.3,9-0.9,12.2s-1.5,5.7-2.7,7.6c-1.2,1.9-2.7,3.2-4.5,3.9
				c-1.8,0.7-4,1.1-6.4,1.1C464.7,312.4,461.7,312,458.9,311z M468.5,267.2h-4.2v40.8h4.2c1.5,0,2.8-0.3,3.9-1
				c1.1-0.7,2-1.8,2.8-3.4c0.8-1.6,1.3-3.7,1.7-6.3c0.4-2.6,0.6-5.9,0.6-9.7c0-3.9-0.2-7.1-0.6-9.7c-0.4-2.6-1-4.7-1.7-6.3
				c-0.8-1.6-1.7-2.7-2.8-3.4C471.1,267.5,469.9,267.2,468.5,267.2z"/>
		</g>
		<g class="st10">
			<path class="st9" d="M495.4,263.9c1.5-0.8,3.3-1.2,5.4-1.2c1.9,0,3.7,0.4,5.3,1.1c1.6,0.7,2.9,2,4,3.9c1.1,1.9,2,4.4,2.6,7.6
				c0.6,3.2,0.9,7.3,0.9,12.2c0,4.9-0.3,9-0.9,12.2c-0.6,3.2-1.4,5.7-2.5,7.6s-2.4,3.2-4,3.9s-3.4,1.1-5.3,1.1c-2,0-3.8-0.4-5.3-1.1
				c-1.6-0.7-2.9-2-4-3.9c-1.1-1.9-2-4.4-2.6-7.6c-0.6-3.2-0.9-7.3-0.9-12.2c0-3.7,0.2-6.9,0.5-9.6c0.3-2.7,0.8-5,1.5-6.9
				c0.6-1.9,1.4-3.4,2.3-4.6C493.2,265.3,494.3,264.5,495.4,263.9z M493.4,287.6c0,13.8,2.5,20.7,7.4,20.7c5,0,7.4-6.9,7.4-20.7
				c0-13.8-2.5-20.7-7.4-20.7C495.9,266.8,493.4,273.7,493.4,287.6z"/>
		</g>
		<g id="Grupo_3">
			<g id="Grupo_2">
				<path id="Caminho_18" class="st11" d="M286.8,366.1c-6.5,0.1-11.2-2.7-11.5-8.8h3.5c3.2,13.7,27.3-0.3,6.2-3.8
					c-3.1-0.6-5.3-1.5-6.7-2.6c-1.3-1.1-2.1-2.8-2-4.5c0-2.1,1-4,2.6-5.2c2-1.4,4.5-2.1,7-2c2.6-0.1,5.2,0.6,7.4,2
					c1.9,1.3,3,3.5,3,5.8h-3.5c-0.4-3.2-2.6-4.7-6.7-4.7c-1.6-0.1-3.2,0.3-4.6,1.1c-1,0.6-1.6,1.7-1.6,2.9c0,1,0.5,1.9,1.3,2.5
					c1.6,0.8,3.2,1.3,4.9,1.6c1.9,0.4,3.9,0.9,5.7,1.5C301.3,354.9,296,367.3,286.8,366.1z M313.8,360.7v-4.2
					C297.4,354.8,304.2,369.7,313.8,360.7L313.8,360.7z M313.8,363.7c-14.5,9.5-21.1-11.8,0-9.7c0-1,0-2-0.2-3
					c-0.2-0.7-0.6-1.2-1.2-1.5c-1-0.5-2.1-0.7-3.2-0.6c-3.1,0-4.7,1.1-4.8,3.2h-3.5c0.3-3.9,3.1-5.8,8.5-5.8
					c2.1-0.1,4.1,0.4,5.9,1.4c1.4,1,2.1,2.8,2.1,5.7v12.2h-3.5L313.8,363.7z M326.5,349.4v16.2h-3.5v-16.2h-2.9v-2.6h2.9v-1.7
					c0-4,1.8-6,5.5-6c0.9,0,1.8,0.1,2.6,0.2v2.9c-0.7-0.1-1.4-0.2-2.1-0.2c-0.7-0.1-1.4,0.2-1.9,0.7c-0.5,0.7-0.7,1.5-0.6,2.4v1.6
					h3.7v2.6L326.5,349.4z M341.3,366.1c-5.9,0-9.6-3.9-9.6-9.9c-0.2-2.7,0.8-5.3,2.5-7.2c3.8-3.5,9.6-3.5,13.3,0
					c1.7,1.7,2.5,4.1,2.5,7.3v0.8h-14.8c-0.6,6.4,9.3,9.2,10.8,3h3.6C349.2,364.2,345.4,366.1,341.3,366.1L341.3,366.1z
					 M346.5,354.4c-0.1-1.5-0.8-3-1.9-4.1c-2.1-1.8-5.1-1.8-7.2,0c-1.1,1.1-1.8,2.5-1.9,4.1L346.5,354.4z M384.8,358.1
					c0.1,9.9-13.6,7.2-20.2,7.6v-26h9.6c2.4-0.1,4.8,0.5,6.8,1.8c1.6,1.1,2.5,2.9,2.5,4.9c0,2.5-1.3,4.4-3.9,5.6
					C382.6,352.4,384.8,355,384.8,358.1L384.8,358.1z M368.1,350.5h6c1.5,0.1,3-0.2,4.4-0.9c1-0.7,1.5-1.9,1.4-3
					c0.1-1.1-0.4-2.2-1.4-2.9c-0.9-0.6-2.5-1-4.8-1h-5.7L368.1,350.5z M368.1,362.6c4-0.1,13.5,1.1,13-4.5c0.2-6.2-8.7-4.1-13-4.5
					V362.6z M399.5,349.8c-0.7-0.2-1.4-0.2-2.1-0.2c-1.9,0.1-3.6,1.1-4.6,2.7v13.3h-3.5v-18.8h3.5v2.6c1.5-2,3.2-3.1,5.1-3.1
					c0.5,0,1.1,0,1.6,0.1V349.8z M409.9,346.4c2.5-0.1,4.9,0.8,6.7,2.6c1.7,1.7,2.5,4.1,2.5,7.3c1,13-19.4,13-18.4,0
					c0-3.1,0.8-5.6,2.5-7.3C404.9,347.2,407.4,346.2,409.9,346.4z M409.9,363.5c3.9-0.1,5.6-3.2,5.6-7.2c0.1-1.9-0.4-3.9-1.5-5.4
					c-2-2.2-5.4-2.5-7.6-0.5c-0.2,0.1-0.3,0.3-0.5,0.5c-1.1,1.6-1.7,3.5-1.5,5.4C404.2,360.3,406,363.4,409.9,363.5L409.9,363.5z
					 M447.5,346.8l-5.9,18.9h-3.3l-4.3-13.8l-4.2,13.9h-3.3l-5.9-18.9h3.9l3.6,14.4l4.4-14.4h3.2l4.4,14.4l3.6-14.4L447.5,346.8z
					 M457.3,366.1c-5.3,0-8.1-2-8.4-6.1h3.5c-0.6,4.2,9.2,5,9.3,0.4c-1.2-4.8-13-1.7-12.4-8.7c0-1.5,0.7-3,2-3.9
					c1.5-1.1,3.4-1.6,5.3-1.5c5.1,0,7.8,1.8,7.9,5.3H461c-0.1-1.8-1.5-2.7-4.2-2.7c-1,0-2,0.2-2.9,0.6c-0.7,0.3-1.2,1.1-1.1,1.9
					c0.3,3.2,8.6,2.8,10.6,4.8C468,360.2,462.9,366.9,457.3,366.1L457.3,366.1z M472.7,365.6h-3.5v-18.8h3.5V365.6z M472.7,343.2
					h-3.5v-3.6h3.5V343.2z M481.3,349.2c1.4-1.8,3.6-2.8,5.9-2.8c4.4,0,6.6,2.3,6.6,7v12.3h-3.5v-12.2c0.1-1.2-0.2-2.3-0.9-3.3
					c-0.7-0.7-1.8-1.1-2.8-1c-1.8,0-3.6,1-5.3,3v13.5h-3.5v-18.9h3.5V349.2z M514.8,364.2c1.7,10.4-15.4,12.7-16.5,3.4h3.6
					c0.6,5.3,10.9,4.3,9.4-4.2c-5.5,6.3-14.5,0.9-13.7-7c-0.1-2.7,0.7-5.3,2.4-7.3c1.5-1.7,3.6-2.7,5.9-2.7c2-0.1,3.9,0.6,5.4,1.9
					v-1.5h3.5V364.2z M511.3,360.2v-9c-1.3-1.5-3.2-2.3-5.2-2.3c-1.4,0-2.8,0.7-3.6,1.9c-1,1.7-1.5,3.6-1.3,5.5
					C500.5,363.2,507.4,366.1,511.3,360.2L511.3,360.2z"/>
			</g>
			<g id="Google_2015_logo">
				<path id="Caminho_12" class="st11" d="M193.3,355.4c0.2,13.5-21.8,13.5-21.5,0C171.5,341.9,193.6,341.9,193.3,355.4z
					 M188.6,355.4c0.1-8.2-12.2-8.2-12.1,0C176.4,363.6,188.7,363.6,188.6,355.4L188.6,355.4z"/>
				<path id="Caminho_13" class="st11" d="M216.5,355.4c0.2,13.5-21.8,13.5-21.5,0C194.8,341.9,216.8,341.9,216.5,355.4z
					 M211.8,355.4c0.1-8.2-12.2-8.2-12.1,0C199.6,363.6,211.9,363.6,211.8,355.4z"/>
				<path id="Caminho_14" class="st11" d="M238.8,345.7v18.5c0.8,13.1-16.5,13.4-19.7,4.6l4.1-1.6c2.7,6.4,12.6,4,11.1-3.9h-0.2
					c-5.3,5.7-16.3,0.1-15.9-8c-0.4-8.1,10.5-13.7,15.9-8h0.2v-1.7L238.8,345.7L238.8,345.7z M234.6,355.5c0.2-8.3-11.8-8.1-11.7,0
					C222.8,363.5,234.8,363.7,234.6,355.5z"/>
				<path id="Caminho_15" class="st11" d="M246.1,334.8v30.3h-4.6v-30.3H246.1z"/>
				<path id="Caminho_16" class="st11" d="M264,358.8l3.6,2.3c-5.4,8.3-20,4.4-19.6-5.8c0.2-13.1,17.4-13.1,19.8-2.6l-14.3,5.7
					C255.5,362.8,261.9,362.5,264,358.8z M252.8,355.1l9.6-3.8C260.1,347.1,252.6,349.2,252.8,355.1z"/>
				<path id="Caminho_17" class="st11" d="M154.4,352.7v-4.4h15.3c3.8,22.4-32.2,22.8-32.2,1.4c-0.6-13.8,19.2-21.2,28.3-11.6
					l-3.2,3.1c-7.1-7-20.5-1.5-20.1,8.5c-0.9,13,21.5,16.3,22.8,3L154.4,352.7z"/>
			</g>
		</g>
		<g class="st10">
			<path class="st11" d="M251.7,165.3c0-4.5,1.1-7.7,3.2-9.6c2.1-1.9,5.3-2.9,9.6-2.9c4.2,0,7.7,0.4,10.5,1.3v2.8h-8.6
				c-3.1,0-5.3,0.7-6.6,2c-1.4,1.3-2,3.5-2,6.5c0,3.1,2.2,5.4,6.6,6.8c1.3,0.5,2.7,1,4.1,1.5c1.4,0.5,2.7,1.3,3.9,2.2
				c1.2,0.9,2.1,2.1,2.9,3.5c0.8,1.4,1.1,3.2,1.1,5.3c0,4.7-1.1,8-3.2,10.1c-2.1,2-5.5,3.1-10,3.1c-4.4,0-7.9-0.4-10.7-1.3v-2.8h8.6
				c3.3,0,5.7-0.7,7.1-2.1c1.4-1.4,2.2-3.7,2.2-7c0-2.8-2.2-4.9-6.6-6.4c-1.4-0.5-2.8-1-4.2-1.6c-1.4-0.6-2.7-1.3-3.9-2.3
				c-1.2-0.9-2.1-2.1-2.8-3.6C252,169.4,251.7,167.5,251.7,165.3z"/>
			<path class="st11" d="M288.5,176.6v16.3h16.6v4.4h-22.6v-43.8h22.6v4.4h-16.6v14.4h14.6v4.4H288.5z"/>
			<path class="st11" d="M336.3,173.4v23.2c-2.7,0.8-6,1.3-9.8,1.3c-2.9,0-5.3-0.4-7.4-1.2c-2-0.8-3.7-2-5-3.8
				c-1.3-1.8-2.3-4.1-2.9-7c-0.6-2.9-0.9-6.4-0.9-10.6c0-4.1,0.3-7.6,0.8-10.5c0.6-2.9,1.4-5.2,2.7-7c1.2-1.8,2.8-3.1,4.7-3.9
				c1.9-0.8,4.2-1.2,6.9-1.2c3.5,0,6.7,0.4,9.4,1.3v2.8h-8.6c-1.6,0-3,0.3-4.2,0.9c-1.2,0.6-2.3,1.6-3.1,3.1s-1.5,3.4-1.9,5.7
				c-0.4,2.4-0.7,5.3-0.7,8.8s0.2,6.4,0.7,8.8c0.4,2.3,1.1,4.2,2,5.7s2.1,2.5,3.5,3.1c1.4,0.6,3.1,0.9,5.1,0.9h2.7v-20.4H336.3z"/>
			<path class="st11" d="M364.2,182.2v-28.8h6v28.8c0,2.9-0.3,5.4-0.8,7.4c-0.5,2-1.3,3.6-2.4,4.8c-1.1,1.2-2.4,2.1-4.1,2.6
				c-1.7,0.5-3.7,0.8-6,0.8c-2.4,0-4.4-0.3-6.1-0.8s-3.1-1.4-4.1-2.6c-1.1-1.2-1.8-2.8-2.3-4.8c-0.5-2-0.7-4.5-0.7-7.4v-28.8h6v28.8
				c0,2.3,0.1,4.1,0.4,5.6c0.3,1.5,0.7,2.7,1.3,3.7s1.4,1.6,2.3,2c0.9,0.4,2,0.6,3.3,0.6c1.2,0,2.3-0.2,3.3-0.6
				c0.9-0.4,1.7-1.1,2.3-2c0.6-0.9,1-2.2,1.3-3.7C364,186.3,364.2,184.4,364.2,182.2z"/>
			<path class="st11" d="M403,167.8c0,7.8-2.2,12.5-6.6,14.1l8,15.3h-6.6l-7.3-14.7c-1.1,0-2.2-0.1-3.3-0.2
				c-1.1-0.1-2.2-0.3-3.3-0.5v15.3h-6V154c3.1-0.8,6.6-1.3,10.6-1.3c2.7,0,5,0.3,6.8,0.8c1.9,0.5,3.4,1.4,4.5,2.6
				c1.2,1.2,2,2.7,2.5,4.6C402.7,162.6,403,165,403,167.8z M383.8,178.4h4.6c1.5,0,2.8-0.2,3.9-0.5c1.1-0.4,2-1,2.7-1.8
				c0.7-0.9,1.2-2,1.5-3.4c0.3-1.4,0.5-3.1,0.5-5.1s-0.2-3.7-0.5-5.1c-0.3-1.4-0.8-2.5-1.5-3.4c-0.7-0.8-1.6-1.4-2.7-1.8
				c-1.1-0.4-2.4-0.6-3.9-0.6h-4.6V178.4z"/>
			<path class="st11" d="M429.9,185.9h-13.3l-3,11.3h-6l11.3-43.8h8.6l11.3,43.8h-6L429.9,185.9z M428.9,181.6l-5.5-21.9h-0.3
				l-5.5,21.9H428.9z"/>
		</g>
		<g class="st10">
			<path class="st12" d="M262.6,77.7h4v64.1h-9.1V84.1h-10.1v-4.6C251.5,78.3,256.6,77.7,262.6,77.7z"/>
			<path class="st12" d="M283,84.2c3.5-4.9,8.6-7.4,15.4-7.4c3.3,0,6.2,0.5,8.8,1.6c2.6,1.1,4.7,2.9,6.5,5.5c1.8,2.6,3.1,6,4,10.2
				c0.9,4.2,1.4,9.4,1.4,15.7c0,6.2-0.4,11.3-1.3,15.5c-0.9,4.2-2.2,7.6-3.9,10.2c-1.7,2.6-3.9,4.5-6.5,5.6
				c-2.6,1.1-5.6,1.7-8.9,1.7c-3.4,0-6.3-0.6-8.9-1.7c-2.6-1.1-4.8-3-6.5-5.6c-1.7-2.6-3.1-6-3.9-10.2c-0.9-4.2-1.3-9.4-1.3-15.5
				C277.7,97.6,279.5,89.1,283,84.2z M295,136.5c0.5,0.3,1.1,0.5,1.7,0.6c0.6,0.1,1.2,0.1,1.8,0.1c1.5,0,2.9-0.4,4.3-1.3
				c1.4-0.9,2.7-2.3,3.7-4.4c1.1-2.1,1.9-4.9,2.6-8.5c0.6-3.5,1-8,1-13.3c0-5.4-0.3-9.8-1-13.4c-0.7-3.5-1.5-6.4-2.6-8.5
				c-1.1-2.1-2.3-3.6-3.7-4.4c-1.4-0.8-2.8-1.2-4.3-1.2c-1.4,0-2.8,0.4-4.2,1.2c-1.4,0.8-2.7,2.3-3.7,4.4c-1.1,2.1-1.9,4.9-2.6,8.5
				c-0.7,3.5-1,8-1,13.4c0,4.3,0.2,8.1,0.7,11.2c0.4,3.1,1,5.7,1.8,7.9c0.8,2.1,1.6,3.8,2.6,5C292.9,135.1,293.9,136,295,136.5z"/>
			<path class="st12" d="M334.4,84.2c3.5-4.9,8.6-7.4,15.4-7.4c3.3,0,6.2,0.5,8.8,1.6s4.7,2.9,6.5,5.5c1.8,2.6,3.1,6,4,10.2
				c0.9,4.2,1.4,9.4,1.4,15.7c0,6.2-0.4,11.3-1.3,15.5c-0.9,4.2-2.2,7.6-3.9,10.2c-1.7,2.6-3.9,4.5-6.5,5.6
				c-2.6,1.1-5.6,1.7-8.9,1.7c-3.4,0-6.3-0.6-8.9-1.7c-2.6-1.1-4.8-3-6.5-5.6c-1.7-2.6-3.1-6-3.9-10.2c-0.9-4.2-1.3-9.4-1.3-15.5
				C329.1,97.6,330.9,89.1,334.4,84.2z M346.3,136.5c0.5,0.3,1.1,0.5,1.7,0.6c0.6,0.1,1.2,0.1,1.8,0.1c1.5,0,2.9-0.4,4.3-1.3
				c1.4-0.9,2.7-2.3,3.7-4.4c1.1-2.1,1.9-4.9,2.6-8.5c0.6-3.5,1-8,1-13.3c0-5.4-0.3-9.8-1-13.4c-0.7-3.5-1.5-6.4-2.6-8.5
				c-1.1-2.1-2.3-3.6-3.7-4.4c-1.4-0.8-2.8-1.2-4.3-1.2c-1.4,0-2.8,0.4-4.2,1.2c-1.4,0.8-2.7,2.3-3.7,4.4c-1.1,2.1-1.9,4.9-2.6,8.5
				c-0.7,3.5-1,8-1,13.4c0,4.3,0.2,8.1,0.7,11.2c0.4,3.1,1,5.7,1.8,7.9c0.8,2.1,1.6,3.8,2.6,5C344.2,135.1,345.3,136,346.3,136.5z"
				/>
			<path class="st12" d="M378.5,90.6c0-9.2,4.7-13.7,14.1-13.7c9.4,0,14.1,4.6,14.1,13.7c0,9.2-4.7,13.7-14.1,13.7
				C383.2,104.3,378.5,99.7,378.5,90.6z M423.8,77.7h9.1l-39.3,64.1h-9.1L423.8,77.7z M392.6,99.3c4.7,0,7.1-2.9,7.1-8.7
				c0-5.8-2.4-8.7-7.1-8.7s-7.1,2.9-7.1,8.7C385.5,96.4,387.9,99.3,392.6,99.3z M410.7,129c0-9.2,4.7-13.7,14.1-13.7
				c9.4,0,14.1,4.6,14.1,13.7c0,9.2-4.7,13.7-14.1,13.7C415.4,142.8,410.7,138.2,410.7,129z M424.8,137.7c4.7,0,7.1-2.9,7.1-8.7
				c0-5.8-2.4-8.7-7.1-8.7c-4.7,0-7.1,2.9-7.1,8.7C417.8,134.8,420.1,137.7,424.8,137.7z"/>
		</g>
		<g class="st10">
			<path class="st11" d="M274.2,63.1c-2.5,0.7-5.4,1.1-8.7,1.1c-2.5,0-4.6-0.4-6.4-1.1c-1.8-0.7-3.2-1.9-4.3-3.4
				c-1.1-1.6-1.9-3.7-2.4-6.3c-0.5-2.6-0.8-5.7-0.8-9.4c0-4,0.3-7.4,0.9-10c0.6-2.6,1.4-4.7,2.6-6.2s2.5-2.6,4.2-3.2
				c1.6-0.6,3.7-0.9,6.4-0.9c2.8,0,5.5,0.4,8,1.1v2.5h-7.9c-1.3,0-2.5,0.3-3.6,0.8c-1.1,0.5-2,1.5-2.7,2.7c-0.7,1.3-1.3,3-1.7,5.1
				c-0.4,2.1-0.6,4.8-0.6,7.9c0,3.1,0.2,5.8,0.6,7.8c0.4,2.1,1,3.8,1.7,5.1c0.8,1.3,1.7,2.2,2.9,2.7c1.1,0.5,2.5,0.8,4,0.8h7.9V63.1
				z"/>
		</g>
		<g class="st10">
			<path class="st11" d="M284.8,24.8c1.6-0.6,3.4-1,5.6-1c2,0,3.8,0.3,5.4,0.9c1.6,0.6,3,1.7,4.2,3.2c1.1,1.5,2,3.6,2.6,6.2
				c0.6,2.6,0.9,5.9,0.9,9.9c0,4-0.3,7.3-0.9,9.9c-0.6,2.6-1.5,4.7-2.6,6.2c-1.1,1.5-2.5,2.6-4.1,3.2c-1.6,0.6-3.5,0.9-5.5,0.9
				s-3.9-0.3-5.5-0.9c-1.6-0.6-3-1.7-4.1-3.2s-2-3.6-2.6-6.2c-0.6-2.6-0.9-5.9-0.9-9.9c0-3,0.2-5.6,0.5-7.8c0.3-2.2,0.8-4,1.5-5.6
				c0.7-1.5,1.4-2.8,2.4-3.7S283.6,25.3,284.8,24.8z M282.7,44c0,11.2,2.5,16.8,7.6,16.8c5.1,0,7.6-5.6,7.6-16.8s-2.5-16.8-7.6-16.8
				C285.3,27.2,282.7,32.8,282.7,44z"/>
		</g>
		<g class="st10">
			<path class="st11" d="M330.4,56.7h-5.5l-8.3-22.1h-0.3l-1.8,29.2H309l2.4-39.2h6.7l9.4,25.2h0.2l9.4-25.2h6.7l2.4,39.2h-5.5
				L339,34.5h-0.3L330.4,56.7z"/>
			<path class="st11" d="M358.5,51v12.6H353V25c2.8-0.7,6.1-1.1,9.8-1.1c2.4,0,4.5,0.2,6.2,0.7c1.7,0.5,3.1,1.2,4.2,2.3
				c1.1,1.1,1.8,2.5,2.3,4.3c0.5,1.8,0.7,4,0.7,6.6c0,2.6-0.2,4.8-0.6,6.6s-1.1,3.3-1.9,4.4c-0.9,1.1-1.9,1.9-3.2,2.4
				c-1.3,0.5-2.7,0.7-4.3,0.7C362.9,51.9,360.3,51.6,358.5,51z M358.5,48.2h4.3c1.5,0,2.7-0.2,3.7-0.5c1-0.3,1.8-0.9,2.4-1.7
				c0.6-0.8,1.1-1.9,1.4-3.2c0.3-1.3,0.4-3,0.4-5c0-2-0.2-3.7-0.5-5c-0.3-1.3-0.8-2.4-1.4-3.2c-0.6-0.8-1.5-1.4-2.5-1.7
				c-1-0.3-2.2-0.5-3.6-0.5h-4.3V48.2z"/>
			<path class="st11" d="M405.6,37.3c0,7-2,11.2-6.1,12.6l7.3,13.7h-6.1L394,50.5c-1,0-2,0-3.1-0.1c-1-0.1-2-0.2-3.1-0.4v13.7h-5.5
				V25c2.8-0.7,6.1-1.1,9.8-1.1c2.5,0,4.6,0.2,6.3,0.7c1.7,0.5,3.1,1.2,4.2,2.3c1.1,1.1,1.8,2.4,2.3,4.1
				C405.3,32.7,405.6,34.8,405.6,37.3z M387.8,46.8h4.3c1.4,0,2.6-0.2,3.6-0.5c1-0.3,1.8-0.9,2.5-1.6c0.6-0.8,1.1-1.8,1.4-3
				c0.3-1.2,0.5-2.7,0.5-4.5c0-1.8-0.1-3.3-0.4-4.6c-0.3-1.3-0.8-2.3-1.4-3c-0.7-0.7-1.5-1.3-2.5-1.6c-1-0.3-2.2-0.5-3.6-0.5h-4.3
				V46.8z"/>
			<path class="st11" d="M430.3,53.6h-12.2l-2.8,10.1h-5.5l10.4-39.2h7.9l10.4,39.2h-5.5L430.3,53.6z M429.4,49.6L424.3,30h-0.2
				L419,49.6H429.4z"/>
		</g>
		<g id="Cadeado">
			<path class="st11" d="M117.1,196.8h101.7c4.2,0,7.6-3.1,7.6-6.9v-78.2c0-3.8-3.4-6.9-7.6-6.9h-7.6V84.1
				c0-21.5-19.4-39.1-43.2-39.1s-43.2,17.5-43.2,39.1v20.7h-7.6c-4.2,0-7.6,3.1-7.6,6.9v78.2C109.5,193.7,112.9,196.8,117.1,196.8z
				 M175.6,153.1v9.2c0,3.8-3.4,6.9-7.6,6.9s-7.6-3.1-7.6-6.9v-9.2c-3.1-2-5-5.5-5.1-9.2c0-6.3,5.7-11.5,12.7-11.5
				s12.7,5.2,12.7,11.5C180.7,147.6,178.8,151,175.6,153.1z M140,84.1c0-14,12.6-25.3,28-25.3s28,11.3,28,25.3v20.7h-56V84.1z"/>
		</g>
	</g>
</g>
</svg>
